<svg width="48" height="48" viewBox="0 0 48 48" fill="none" xmlns="http://www.w3.org/2000/svg">
<circle cx="24" cy="24" r="24" fill="white"/>
<path d="M23.8934 18.0267L24.68 19.8667C24.7334 20.0267 24.88 20.12 25.0267 20.1334L27.0267 20.32C27.4534 20.36 27.6134 20.88 27.3067 21.16L25.8 22.48C25.68 22.5867 25.6267 22.7467 25.6667 22.8934L26.1067 24.8534C26.2 25.2667 25.76 25.5867 25.3867 25.3734L23.6667 24.3467C23.5334 24.2667 23.36 24.2667 23.2267 24.3467L21.5067 25.3734C21.1467 25.5867 20.6934 25.2667 20.7867 24.8534L21.2267 22.8934C21.2667 22.7467 21.2134 22.5867 21.0934 22.48L19.5867 21.16C19.2667 20.88 19.44 20.36 19.8667 20.32L21.8667 20.1334C22.0267 20.12 22.16 20.0267 22.2267 19.88L23.0134 18.04C23.1734 17.64 23.72 17.64 23.8934 18.0267Z" stroke="#F0C932" stroke-width="1.33333" stroke-miterlimit="10" stroke-linecap="round" stroke-linejoin="round"/>
<path d="M32.5165 21.9262C32.5509 16.9188 28.5196 12.8316 23.5122 12.7971C18.5048 12.7626 14.4176 16.794 14.3831 21.8014C14.3487 26.8088 18.38 30.896 23.3874 30.9304C28.3948 30.9649 32.482 26.9336 32.5165 21.9262Z" stroke="#F0C932" stroke-width="1.33333" stroke-miterlimit="10" stroke-linecap="round" stroke-linejoin="round"/>
<path d="M22.2133 30.84L19.96 36.5067L17.1067 33.24L12.8 33.64L15.6533 26.4933" stroke="#F0C932" stroke-width="1.33333" stroke-miterlimit="10" stroke-linecap="round" stroke-linejoin="round"/>
<path d="M24.6667 30.84L26.9334 36.5067L29.7734 33.24L34.0934 33.64L31.2267 26.4933" stroke="#F0C932" stroke-width="1.33333" stroke-miterlimit="10" stroke-linecap="round" stroke-linejoin="round"/>
</svg>
